<svg width="64" height="64" viewBox="0 0 64 64" fill="none" xmlns="http://www.w3.org/2000/svg">
<circle cx="31.5658" cy="31.6225" r="31" fill="#FDAF3B" stroke="#FDAF3B"/>
<path d="M24.0399 22.2633C23.9052 22.2674 23.7729 22.2968 23.6506 22.3496C23.5283 22.4025 23.4186 22.4779 23.328 22.5712C23.2373 22.6645 23.1676 22.7739 23.1229 22.8929C23.0782 23.0119 23.0594 23.1381 23.0677 23.2641C23.2022 25.424 23.8362 30.6941 26.8717 33.9807C30.5067 37.9406 35.2406 39.3049 40.0975 39.1033C40.3578 39.0887 40.6026 38.9821 40.7823 38.8051C40.962 38.628 41.0633 38.3937 41.0658 38.1493V34.6899C41.0628 34.3671 40.9441 34.0547 40.7288 33.8027C40.5134 33.5507 40.214 33.3738 39.8785 33.3004L37.4462 32.7964C37.1454 32.7363 36.8322 32.7622 36.5473 32.8706C36.2623 32.9791 36.0186 33.1652 35.8477 33.4048L35.3098 34.1679C35.2604 34.2378 35.1866 34.2893 35.101 34.3136C35.0154 34.3379 34.9235 34.3335 34.841 34.3011C33.6037 33.8008 28.6739 31.6409 28.1321 27.9978C28.1215 27.9275 28.1333 27.8558 28.1661 27.7917C28.199 27.7276 28.2513 27.6741 28.3165 27.6379L29.2925 27.0799C29.5602 26.9245 29.7705 26.6957 29.8949 26.4247C30.0192 26.1536 30.0518 25.8533 29.988 25.5644L29.4539 23.2461C29.3758 22.9213 29.18 22.6318 28.8997 22.427C28.6195 22.2223 28.2722 22.1148 27.9169 22.1229L24.0399 22.2633Z" stroke="black"/>
</svg>
