<svg width="73" height="73" viewBox="0 0 73 73" fill="none" xmlns="http://www.w3.org/2000/svg">
<ellipse cx="36.6057" cy="36.4999" rx="36.3645" ry="36.4252" fill="url(#paint0_linear_90_259)"/>
<path d="M34.4527 25.8245C34.9529 25.8245 35.3817 26.0034 35.739 26.3613C36.0248 26.7192 36.1677 27.1486 36.1677 27.6497C36.1677 28.2223 36.0605 28.7949 35.8461 29.3675L30.1652 44.0767C29.8079 44.7925 29.4507 45.3651 29.0934 45.7945C28.6646 46.2956 27.9858 46.5461 27.0568 46.5461L23.5196 46.5461C22.948 46.5461 22.5192 46.3314 22.2334 45.9019C21.8761 45.4724 21.7689 44.8998 21.9118 44.184L24.2699 28.9381C24.3414 28.0791 24.6272 27.3276 25.1274 26.6834C25.6277 26.1108 26.378 25.8245 27.3784 25.8245L34.4527 25.8245ZM51.6026 25.8245C52.1028 25.8245 52.5316 26.0034 52.8889 26.3613C53.1747 26.7192 53.3176 27.1486 53.3176 27.6497C53.3176 28.2223 53.2104 28.7949 52.9961 29.3675L47.3151 44.0767C46.9579 44.7925 46.5648 45.3651 46.1361 45.7945C45.7073 46.2956 45.0642 46.5461 44.2067 46.5461H40.6696C40.0979 46.5461 39.6691 46.3314 39.3833 45.9019C39.026 45.4724 38.9188 44.8998 39.0617 44.184L41.4199 28.9381C41.4913 28.0792 41.7772 27.3276 42.2774 26.6834C42.7776 26.1108 43.4921 25.8245 44.4211 25.8245L51.6026 25.8245Z" fill="#091242"/>
<defs>
<linearGradient id="paint0_linear_90_259" x1="-1.82069" y1="15.859" x2="89.6744" y2="22.3456" gradientUnits="userSpaceOnUse">
<stop stop-color="#FFB629"/>
<stop offset="0.507189" stop-color="#FFDA56"/>
<stop offset="1" stop-color="#FFD7A6"/>
</linearGradient>
</defs>
</svg>
