<svg width="14" height="14" viewBox="0 0 14 14" fill="none" xmlns="http://www.w3.org/2000/svg">
<path d="M1.54583 7.57544H6.14125V12.1709C6.14125 12.6379 6.52546 13.0297 7.00007 13.0297C7.47468 13.0297 7.85889 12.6379 7.85889 12.1709V7.57544H12.4543C12.9214 7.57544 13.3131 7.19123 13.3131 6.71662C13.3131 6.24201 12.9214 5.85781 12.4543 5.85781H7.85889V1.26238C7.85889 0.795306 7.47468 0.403564 7.00007 0.403564C6.52546 0.403564 6.14125 0.795306 6.14125 1.26238V5.85781H1.54583C1.07875 5.85781 0.687012 6.24201 0.687012 6.71662C0.687012 7.19123 1.07875 7.57544 1.54583 7.57544Z" fill="#1A0F91"/>
</svg>
