<svg width="24" height="24" viewBox="0 0 24 24" fill="none" xmlns="http://www.w3.org/2000/svg">
<path d="M6.16158 16.3302C5.84517 16.6466 5.8301 17.2117 6.16911 17.5431C6.50058 17.8746 7.06559 17.8671 7.382 17.5507L11.9925 12.9326L16.6105 17.5507C16.9345 17.8746 17.4919 17.8746 17.8234 17.5431C18.1473 17.2041 18.1549 16.6542 17.8234 16.3302L13.2129 11.7122L17.8234 7.10173C18.1549 6.77779 18.1549 6.22031 17.8234 5.88884C17.4844 5.5649 16.9345 5.55736 16.6105 5.8813L11.9925 10.4993L7.382 5.8813C7.06559 5.5649 6.49305 5.54983 6.16911 5.88884C5.83764 6.22031 5.84517 6.78532 6.16158 7.10173L10.7796 11.7122L6.16158 16.3302Z" fill="#1A0F91"/>
</svg>
